<svg width="32" height="32" viewBox="0 0 32 32" xmlns="http://www.w3.org/2000/svg"><path d="M28 29H4c-.552 0-1-.448-1-1V13h4c-.52.75-.697 2.15-.697 3.037 0 5.355 4.367 9.712 9.734 9.712 5.368 0 9.735-4.358 9.735-9.713 0-.888-.126-2.266-.772-3.037h4v15c0 .552-.448 1-1 1M16.037 9.898c3.4 0 6.154 2.75 6.154 6.14 0 3.39-2.754 6.14-6.153 6.14-3.398 0-6.153-2.75-6.153-6.14 0-3.39 2.755-6.14 6.153-6.14M24 4h3c.552 0 1 .448 1 1v3c0 .552-.448 1-1 1h-3c-.552 0-1-.448-1-1V5c0-.552.448-1 1-1m4.196-4H3.804C1.704 0 0 1.7 0 3.795v24.41C0 30.3 1.703 32 3.804 32h24.392c2.1 0 3.804-1.7 3.804-3.795V3.795C32 1.7 30.297 0 28.196 0" fill="#484848" fill-rule="evenodd"/></svg>
