<svg width="32" height="20" viewBox="0 0 32 20" xmlns="http://www.w3.org/2000/svg"><title>behance</title><desc>Created with Sketch.</desc><g fill="none"><path d="M0-6h32v32H0z"/><g fill="#484848"><path d="M10.282 16.445h-5.63V11.1h5.902s2.137-.027 2.137 2.747c0 2.313-1.562 2.575-2.408 2.598zm-5.63-12.89h5.902s1.434 0 1.434 2.08-.844 2.382-1.8 2.382H4.65V3.555zm8.546 5.576s3.095-.226 3.095-3.804c0-3.58-2.532-5.326-5.74-5.326H.002v20h10.555s6.442.2 6.442-5.903c0 0 .282-4.966-3.798-4.966z"/><path d="M28.035 10.88h-6.7s.438-3.014 3.59-3.014c3.15 0 3.11 3.015 3.11 3.015M24.845 5c-7.845 0-7.838 7.516-7.838 7.516s-.54 7.478 7.838 7.478c0 0 6.98.383 6.98-5.2h-3.59s.12 2.102-3.27 2.102c0 0-3.59.23-3.59-3.404h10.57S33.1 5 24.845 5"/><path d="M29 0h-8v2h8z"/></g></g></svg>