<svg width="25" height="17" viewBox="0 0 25 17" xmlns="http://www.w3.org/2000/svg"><g fill="#F58C86" fill-rule="evenodd"><path d="M7.86 12.75H3.555V8.604h4.513s1.634-.02 1.634 2.13c0 1.793-1.195 1.996-1.842 2.014zM3.555 2.755h4.512s1.098 0 1.098 1.613c0 1.612-.645 1.846-1.377 1.846H3.555v-3.46zM10.09 7.08s2.365-.177 2.365-2.95C12.455 1.353 10.52 0 8.068 0H0v15.505h8.068s4.925.155 4.925-4.576c0 0 .216-3.85-2.903-3.85zM22.6 9.13h-5.094s.334-2.39 2.728-2.39c2.395 0 2.365 2.39 2.365 2.39M19.56 4.394c-5.962 0-5.957 5.957-5.957 5.957s-.41 5.927 5.957 5.927c0 0 5.306.302 5.306-4.124h-2.73s.092 1.668-2.485 1.668c0 0-2.728.182-2.728-2.698h8.033s.88-6.73-5.396-6.73M22.803 1.563h-6.397v1.562h6.397"/></g></svg>
