<svg width="21" height="21" viewBox="0 0 21 21" xmlns="http://www.w3.org/2000/svg"><title>dribbble</title><desc>Created with Sketch.</desc><path d="M17.442 4.842c-.19.256-1.69 2.183-5.007 3.536.208.427.408.862.594 1.3.065.154.13.308.193.462 2.984-.375 5.95.226 6.245.288-.02-2.116-.777-4.06-2.026-5.586M8.4 1.794c.246.332 1.876 2.55 3.345 5.25 3.19-1.195 4.54-3.01 4.7-3.24-1.584-1.405-3.666-2.26-5.945-2.26-.723 0-1.427.087-2.1.25M1.72 8.676c.402.006 4.097.022 8.292-1.092-1.485-2.642-3.09-4.863-3.325-5.187-2.51 1.183-4.384 3.496-4.966 6.28m2.117 7.833c.204-.348 2.664-4.423 7.29-5.918.117-.038.235-.074.353-.107-.225-.51-.47-1.02-.727-1.522-4.48 1.34-8.824 1.284-9.217 1.276-.002.09-.004.182-.004.273 0 2.304.873 4.407 2.305 5.997m10.167 2.26c-.134-.787-.655-3.53-1.914-6.802l-.06.02c-5.057 1.762-6.873 5.27-7.035 5.6 1.52 1.187 3.432 1.894 5.505 1.894 1.242 0 2.427-.254 3.504-.713m5.35-6.833c-.306-.097-2.774-.833-5.585-.384 1.172 3.224 1.65 5.85 1.74 6.395 2.013-1.36 3.446-3.516 3.845-6.01M10.5 21C4.71 21 0 16.29 0 10.5S4.71 0 10.5 0 21 4.71 21 10.5 16.29 21 10.5 21" fill="#484848"/></svg>