<svg width="25" height="26" viewBox="0 0 25 26" xmlns="http://www.w3.org/2000/svg"><path d="M24.745 15.572c-.165.834-.41 1.653-.73 2.436-.31.77-.7 1.51-1.152 2.202-.446.687-.96 1.33-1.525 1.918-.565.585-1.188 1.117-1.85 1.583-.667.468-1.382.87-2.123 1.196-.755.33-1.545.583-2.348.754-.824.176-1.67.266-2.518.266-.848 0-1.695-.09-2.518-.266-.804-.17-1.594-.424-2.35-.754-.74-.326-1.455-.728-2.123-1.195-.662-.465-1.284-.997-1.85-1.582-.564-.587-1.078-1.23-1.525-1.918-.45-.69-.84-1.433-1.152-2.202-.32-.783-.565-1.602-.73-2.436-.168-.854-.253-1.73-.253-2.61 0-.878.085-1.756.253-2.61.165-.833.41-1.653.73-2.435.313-.77.702-1.51 1.152-2.203.447-.687.96-1.33 1.526-1.918.566-.585 1.188-1.116 1.85-1.58.667-.47 1.383-.872 2.124-1.198.754-.33 1.544-.585 2.348-.755C10.805.09 11.652 0 12.5 0c.846 0 1.693.09 2.517.263.803.17 1.593.424 2.348.755.74.326 1.456.728 2.124 1.197.66.465 1.283.996 1.848 1.58.565.59 1.08 1.232 1.525 1.92.453.69.84 1.432 1.153 2.202.32.782.564 1.602.73 2.436.168.853.254 1.73.254 2.61 0 .878-.086 1.755-.255 2.61zm-22.692-4.89c.282 0 4.73.06 9.856-1.353-1.85-3.405-3.823-6.183-3.965-6.38-2.977 1.458-5.2 4.302-5.892 7.73zm-.22 1.928c-.003.12-.01.234-.01.353 0 2.844 1.036 5.436 2.737 7.397-.004-.006 2.917-5.38 8.678-7.312.14-.048.28-.09.42-.133-.267-.63-.56-1.26-.865-1.88-5.496 1.705-10.77 1.582-10.96 1.575zM12.5 1.894c-.868 0-1.71.11-2.516.31.16.223 2.165 2.98 3.99 6.457 4.03-1.565 5.55-3.965 5.575-4.005-1.88-1.72-4.348-2.76-7.05-2.76zm1.816 12.88c-6.3 2.276-8.355 6.865-8.378 6.915 1.813 1.46 4.086 2.342 6.56 2.342 1.48 0 2.888-.312 4.17-.877-.16-.967-.78-4.357-2.28-8.406-.025.007-.05.014-.072.023zm8.723-.057c-.22-.073-3.207-1.053-6.653-.48 1.4 3.99 1.97 7.24 2.078 7.906 2.397-1.677 4.1-4.34 4.574-7.426zm-7.534-2.8c.078.193.155.383.23.573 3.667-.48 7.28.326 7.435.36-.024-2.625-.93-5.034-2.427-6.92-.02.03-1.732 2.596-5.947 4.38.248.53.488 1.066.71 1.606z" fill="#F58C86" fill-rule="evenodd"/></svg>
