<svg width="32" height="32" viewBox="0 0 32 32" xmlns="http://www.w3.org/2000/svg"><title>dribbble</title><desc>Created with Sketch.</desc><path d="M26.58 7.378c-.29.39-2.58 3.326-7.632 5.39.318.65.623 1.312.906 1.978.1.236.2.47.295.705 4.546-.57 9.065.346 9.515.44-.03-3.224-1.183-6.186-3.086-8.512M12.797 2.734c.377.506 2.86 3.886 5.1 8 4.86-1.82 6.916-4.586 7.162-4.936-2.414-2.142-5.587-3.444-9.06-3.444-1.102 0-2.175.132-3.202.38M2.623 13.22c.61.01 6.24.034 12.634-1.664-2.264-4.025-4.707-7.41-5.067-7.904-3.823 1.804-6.68 5.328-7.567 9.57m3.224 11.936c.31-.53 4.06-6.74 11.11-9.018.177-.058.357-.112.537-.163-.343-.776-.716-1.553-1.108-2.32C9.56 15.7 2.94 15.616 2.34 15.604c-.003.14-.006.278-.006.417 0 3.51 1.33 6.715 3.513 9.138M21.34 28.6c-.205-1.198-.998-5.377-2.917-10.363l-.09.03c-7.708 2.686-10.475 8.032-10.72 8.535C9.928 28.61 12.84 29.687 16 29.687c1.893 0 3.698-.387 5.34-1.086m8.154-10.41c-.468-.148-4.23-1.27-8.513-.585 1.79 4.912 2.516 8.913 2.656 9.744 3.066-2.074 5.25-5.358 5.858-9.16M16 32C7.178 32 0 24.822 0 16 0 7.177 7.178 0 16 0c8.823 0 16 7.177 16 16 0 8.822-7.177 16-16 16" fill="#484848"/></svg>
