<?xml version="1.0" encoding="UTF-8"?>
<svg width="32px" height="16px" viewBox="0 0 32 16" version="1.1" xmlns="http://www.w3.org/2000/svg" xmlns:xlink="http://www.w3.org/1999/xlink">
    <!-- Generator: Sketch 59.1 (86144) - https://sketch.com -->
    <title>Shape</title>
    <desc>Created with Sketch.</desc>
    <g id="Social-Icons" stroke="none" stroke-width="1" fill="none" fill-rule="evenodd">
        <g transform="translate(-306.000000, -255.000000)" fill="#FFFFFF" id="etsy">
            <g transform="translate(300.000000, 240.000000)">
                <path d="M18.8699106,16.7256545 C18.5362463,18.7528796 17.6146971,19.4900524 16.4865938,19.6240838 L16.4865938,20.2104712 L17.9006951,20.2104712 L17.9006951,25.3539267 C17.9006951,26.7947644 18.8063555,27.4984293 20.0139027,27.4984293 C20.9513406,27.4984293 21.9205561,27.0795812 22.2542205,26.208377 L21.9205561,25.7560209 C21.7616683,26.0408377 21.2532274,26.4596859 20.6176763,26.4596859 C19.91857,26.4596859 19.5372393,25.9570681 19.5372393,24.6837696 L19.5372393,20.1434555 L21.8887786,20.3277487 L22.0158888,19.1884817 L19.5372393,19.2890052 L19.5372393,16.7256545 L18.8699106,16.7256545 L18.8699106,16.7256545 Z M23.8748759,24.6335079 L23.2711023,24.6502618 C23.3505462,25.4544503 23.366435,26.2586387 23.2711023,26.9958115 C23.2711023,26.9958115 24.4786495,27.4649215 25.7020854,27.4649215 C27.3545184,27.4649215 28.673287,26.6272251 28.673287,25.0020942 C28.673287,22.1539267 24.6693148,22.6062827 24.6693148,20.6963351 C24.6693148,19.9089005 25.3525323,19.6073298 26.0516385,19.6073298 C26.6395233,19.6073298 27.1161867,19.8251309 27.2115194,20.1434555 L27.6087388,21.4 L28.1966236,21.3664921 C28.2284012,20.6963351 28.2760675,19.9256545 28.3714002,19.3057592 C27.8629593,19.0712042 26.7984111,18.9371728 26.1310824,18.9371728 C24.5739821,18.9371728 23.3187686,19.6575916 23.3187686,21.2659686 C23.3187686,24.0806283 27.2274081,23.460733 27.2274081,25.5717277 C27.2274081,26.2753927 26.7984111,26.8115183 25.8450844,26.8115183 C24.939424,26.8115183 24.4945382,26.3256545 24.3197617,25.8397906 L23.8748759,24.6335079 L23.8748759,24.6335079 Z M30.3733863,30.0450262 C29.8967229,30.0450262 29.7537239,29.8104712 29.6901688,29.4753927 L29.4518371,28.1685864 L28.7845084,28.2020942 C28.6891758,28.9727749 28.5461768,29.8439791 28.3555114,30.5308901 C28.8003972,30.8492147 29.3406157,31 30.0714995,31 C31.1519364,31 32.7725919,30.6816754 34.2343595,27.0460733 L36.7765641,20.6963351 C36.9831182,20.1937173 37.0466733,20.1267016 37.6663357,19.8753927 L38,19.7413613 L38,19.1549738 L36.490566,19.2387435 L34.8857994,19.1549738 L34.8857994,19.7413613 L35.2989076,19.8753927 C35.7120159,20.0094241 35.9026812,20.1602094 35.9026812,20.5120419 C35.9026812,20.6963351 35.8550149,20.7801047 35.7596822,21.0146597 C35.5849057,21.4837696 34.4568024,24.4157068 33.9006951,25.6890052 C33.2015889,23.8460733 32.2482622,21.0984293 32.1370407,20.6963351 C32.1052632,20.5958115 32.0893744,20.5120419 32.0893744,20.4282723 C32.0893744,20.1602094 32.2641509,19.9424084 32.6454816,19.8586387 L33.1698113,19.7413613 L33.1698113,19.1549738 L30.9930487,19.2387435 L29.2611718,19.1549738 L29.2611718,19.7413613 L29.5471698,19.8418848 C29.9602781,19.9926702 30.0079444,20.0429319 30.2780536,20.6795812 C31.3743793,23.2931937 32.5978153,26.6272251 32.9950348,27.7162304 C32.1370407,29.5424084 31.1201589,30.0450262 30.3733863,30.0450262 L30.3733863,30.0450262 Z M9.43197617,16.2565445 C9.43197617,16.0890052 9.44786495,15.9884817 9.71797418,15.9884817 L13.3565045,15.9884817 C13.9920556,15.9884817 14.3416087,16.5581152 14.5958292,17.6303665 L14.8023833,18.4848168 L15.4220457,18.4848168 C15.5332671,16.0554974 15.6285998,15 15.6285998,15 C15.6285998,15 14.0714995,15.1842932 13.1499503,15.1842932 L8.49453823,15.1842932 L6,15.1005236 L6,15.8041885 L6.84210526,15.9717277 C7.42999007,16.0890052 7.57298908,16.2230366 7.62065541,16.7926702 C7.62065541,16.7926702 7.66832175,18.4680628 7.66832175,21.2324607 C7.66832175,23.9968586 7.62065541,25.6554974 7.62065541,25.6554974 C7.62065541,26.1581152 7.42999007,26.3424084 6.84210526,26.4596859 L6,26.6272251 L6,27.3308901 L8.49453823,27.2471204 L12.6573982,27.2471204 C13.5948361,27.2471204 15.7715988,27.3308901 15.7715988,27.3308901 C15.8192651,26.7277487 16.1370407,23.9968586 16.1847071,23.695288 L15.5968222,23.695288 L14.9771599,25.1863874 C14.4846077,26.3591623 13.7696127,26.4429319 12.9751738,26.4429319 L10.6077458,26.4429319 C9.81330685,26.4429319 9.43197617,26.1078534 9.43197617,25.3874346 L9.43197617,21.5675393 C9.43197617,21.5675393 11.1956306,21.5675393 11.7676266,21.617801 C12.2125124,21.6513089 12.4826216,21.7853403 12.6256207,22.4387435 L12.816286,23.3099476 L13.4995035,23.3099476 L13.4518371,21.1151832 L13.5471698,18.9036649 L12.8639523,18.9036649 L12.6415094,19.8753927 C12.4985104,20.5120419 12.4031778,20.6293194 11.7835154,20.6963351 C10.9731877,20.7801047 9.43197617,20.7633508 9.43197617,20.7633508 L9.43197617,16.2565445 L9.43197617,16.2565445 Z" id="Shape"></path>
            </g>
        </g>
    </g>
</svg>