<svg width="21" height="21" viewBox="0 0 21 21" xmlns="http://www.w3.org/2000/svg"><title>instagram</title><desc>Created with Sketch.</desc><path d="M18.375 19.03H2.625c-.362 0-.656-.293-.656-.655V8.53h2.624c-.342.493-.458 1.412-.458 1.994 0 3.515 2.866 6.374 6.388 6.374 3.523 0 6.39-2.86 6.39-6.374 0-.582-.084-1.487-.508-1.993h2.625v9.845c0 .362-.293.656-.655.656m-7.85-12.534c2.23 0 4.038 1.804 4.038 4.028 0 2.226-1.808 4.03-4.04 4.03-2.23 0-4.037-1.804-4.037-4.03 0-2.224 1.808-4.028 4.038-4.028m5.226-3.87h1.97c.36 0 .655.293.655.655v1.97c0 .362-.294.656-.656.656h-1.97c-.362 0-.656-.294-.656-.656V3.28c0-.36.294-.655.656-.655M18.504 0H2.496C1.118 0 0 1.115 0 2.49v16.02C0 19.885 1.118 21 2.496 21h16.008C19.882 21 21 19.885 21 18.51V2.49C21 1.115 19.882 0 18.504 0" fill="#484848"/></svg>