<svg width="25" height="27" viewBox="0 0 25 27" xmlns="http://www.w3.org/2000/svg"><path d="M24.945 23.875c.02-.116.037-.234.055-.35V2.61c-.017-.114-.032-.23-.054-.344-.22-1.17-1.143-2.08-2.278-2.242C22.62.02 22.575.01 22.528 0H2.472c-.12.023-.242.04-.36.068C1 .332.18 1.265.023 2.438c-.006.05-.016.097-.024.146v20.97c.023.132.04.266.07.398.244 1.132 1.17 2.01 2.27 2.158.052.007.105.017.16.026h20c.13-.023.262-.042.39-.07 1.02-.227 1.855-1.118 2.055-2.19zm-22.24-1.603c0 .556.46 1.034.993 1.034h17.6c.537 0 .995-.477.995-1.038v-11.67h-2.386c.337 1.126.44 2.272.308 3.44-.133 1.167-.492 2.253-1.08 3.257-.585 1.004-1.345 1.836-2.276 2.5-2.414 1.717-5.59 1.868-8.15.366-1.296-.758-2.312-1.816-3.02-3.18-1.057-2.033-1.226-4.168-.606-6.383h-2.38v11.675zm9.68-3.91c2.83.063 5.12-2.3 5.178-5.177.06-2.966-2.227-5.415-5.063-5.413-2.773-.002-5.027 2.33-5.066 5.216-.04 2.963 2.23 5.312 4.95 5.374zm9.908-12.7V3.184c0-.592-.448-1.062-1.013-1.063h-2.362c-.564 0-1.013.473-1.014 1.065 0 .818-.002 1.636.003 2.454 0 .123.023.25.06.366.14.435.523.702.99.705h1.14c.41-.005.824.004 1.235-.007.53-.014.96-.488.96-1.042z" fill="#F58C86" fill-rule="evenodd"/></svg>
