<?xml version="1.0" encoding="UTF-8" standalone="no"?>
<svg width="23px" height="23px" viewBox="0 0 23 23" version="1.1" xmlns="http://www.w3.org/2000/svg" xmlns:xlink="http://www.w3.org/1999/xlink">
    <!-- Generator: Sketch 46.1 (44463) - http://www.bohemiancoding.com/sketch -->
    <title>linkedin</title>
    <desc>Created with Sketch.</desc>
    <defs></defs>
    <g id="Home" stroke="none" stroke-width="1" fill="none" fill-rule="evenodd">
        <g id="Desktop-HD-Copy-4" transform="translate(-368.000000, -620.000000)">
            <g id="linkedin" transform="translate(363.000000, 615.000000)">
                <rect id="Rectangle-6" x="0" y="0" width="32" height="32"></rect>
                <path d="M27.904,27.862 L23.158,27.862 L23.158,20.436 C23.158,18.665 23.128,16.387 20.692,16.387 C18.223,16.387 17.846,18.317 17.846,20.309 L17.846,27.862 L13.105,27.862 L13.105,12.591 L17.655,12.591 L17.655,14.679 L17.72,14.679 C18.353,13.478 19.901,12.212 22.21,12.212 C27.016,12.212 27.904,15.374 27.904,19.487 L27.904,27.862 Z M7.754,10.505 C6.229,10.505 5,9.272 5,7.752 C5,6.233 6.229,5 7.754,5 C9.272,5 10.505,6.233 10.505,7.752 C10.505,9.272 9.272,10.505 7.754,10.505 L7.754,10.505 Z M10.128,27.862 L5.377,27.862 L5.377,12.591 L10.128,12.591 L10.128,27.862 Z" id="Fill-33" fill="#484848"></path>
            </g>
        </g>
    </g>
</svg>