<?xml version="1.0" encoding="UTF-8" standalone="no"?>
<svg width="16px" height="16px" viewBox="0 0 16 16" version="1.1" xmlns="http://www.w3.org/2000/svg" xmlns:xlink="http://www.w3.org/1999/xlink">
    <!-- Generator: Sketch 46.1 (44463) - http://www.bohemiancoding.com/sketch -->
    <title>linkedin</title>
    <desc>Created with Sketch.</desc>
    <defs></defs>
    <g id="Page-1" stroke="none" stroke-width="1" fill="none" fill-rule="evenodd">
        <g id="Home-Page" transform="translate(-294.000000, -382.000000)">
            <g id="Group-16" transform="translate(250.000000, 150.000000)">
                <g id="linkedin" transform="translate(41.000000, 229.000000)">
                    <rect id="Rectangle-6" x="0" y="0" width="21" height="21"></rect>
                    <path d="M18.312,18.2844375 L15.1974375,18.2844375 L15.1974375,13.411125 C15.1974375,12.2489063 15.17775,10.7539688 13.579125,10.7539688 C11.9588438,10.7539688 11.7114375,12.0205313 11.7114375,13.3277813 L11.7114375,18.2844375 L8.60015625,18.2844375 L8.60015625,8.26284375 L11.5860938,8.26284375 L11.5860938,9.63309375 L11.62875,9.63309375 C12.0441563,8.8449375 13.0600313,8.014125 14.5753125,8.014125 C17.72925,8.014125 18.312,10.0891875 18.312,12.7883438 L18.312,18.2844375 Z M5.0885625,6.89390625 C4.08778125,6.89390625 3.28125,6.08475 3.28125,5.08725 C3.28125,4.09040625 4.08778125,3.28125 5.0885625,3.28125 C6.08475,3.28125 6.89390625,4.09040625 6.89390625,5.08725 C6.89390625,6.08475 6.08475,6.89390625 5.0885625,6.89390625 L5.0885625,6.89390625 Z M6.6465,18.2844375 L3.52865625,18.2844375 L3.52865625,8.26284375 L6.6465,8.26284375 L6.6465,18.2844375 Z" id="Fill-33" fill="#fff"></path>
                </g>
            </g>
        </g>
    </g>
</svg>
