<svg width="16" height="16" viewBox="0 0 16 16" xmlns="http://www.w3.org/2000/svg"><title>linkedin</title><desc>Created with Sketch.</desc><g fill="none"><path d="M-3-3h21v21H-3z"/><path d="M15.312 15.284h-3.115V10.41c0-1.16-.02-2.656-1.618-2.656-1.62 0-1.87 1.267-1.87 2.574v4.956H5.6V5.264h2.986v1.37h.043c.414-.79 1.43-1.62 2.945-1.62 3.154 0 3.737 2.075 3.737 4.774v5.496zM8.09 9.894c-1.002 0-1.81-.81-1.81-1.807 0-.997.808-1.806 1.81-1.806.995 0 1.804.81 1.804 1.807 0 .998-.81 1.807-1.805 1.807zm1.556 11.39H3.53V8.264h3.116v10.02z" fill="#484848"/></g></svg>