<svg width="25" height="25" viewBox="0 0 25 25" xmlns="http://www.w3.org/2000/svg"><path d="M0 8.09v16.52h5.352V8.09H0zM3.028 0C1.198 0 0 1.234 0 2.854 0 4.44 1.162 5.71 2.96 5.71h.033c1.866 0 3.028-1.27 3.028-2.856C5.99 1.234 4.86 0 3.03 0zm15.81 8.09c-2.842 0-4.115 1.602-4.825 2.727v-2.34H8.66c.07 1.55 0 16.523 0 16.523h5.353v-9.228c0-.494.035-.986.176-1.34.385-.986 1.266-2.008 2.745-2.008 1.937 0 2.712 1.515 2.712 3.736V25H25v-9.474c0-5.075-2.64-7.437-6.163-7.437z" fill="#F58C86" fill-rule="evenodd"/></svg>