<svg width="23" height="23" viewBox="0 0 23 23" xmlns="http://www.w3.org/2000/svg"><title>linkedin</title><desc>Created with Sketch.</desc><g fill="none"><path d="M-5-5h32v32H-5z"/><path d="M22.904 22.862h-4.746v-7.426c0-1.77-.03-4.05-2.466-4.05-2.47 0-2.846 1.93-2.846 3.923v7.552h-4.74V7.592h4.55v2.087h.064c.633-1.202 2.18-2.468 4.49-2.468 4.806 0 5.694 3.162 5.694 7.275v8.375zm-15.15-12.357C6.23 10.505 5 9.272 5 7.752S6.23 5 7.754 5c1.518 0 2.75 1.233 2.75 2.752 0 1.52-1.232 2.753-2.75 2.753zm2.374 17.357h-4.75v-15.27h4.75v15.27z" fill="#484848"/></g></svg>